<?xml version="1.0" encoding="utf-8"?>
<!-- Generator: Adobe Illustrator 26.0.2, SVG Export Plug-In . SVG Version: 6.00 Build 0)  -->
<svg version="1.1" id="Layer_1" xmlns="http://www.w3.org/2000/svg" xmlns:xlink="http://www.w3.org/1999/xlink" x="0px" y="0px"
	 viewBox="0 0 769.39 915.14" style="enable-background:new 0 0 769.39 915.14;" xml:space="preserve">
<style type="text/css">
	.st0{fill:#FFFFFF;}
	.st1{fill:#FFFFFF;}
	.st2{fill:#A6296E;}
</style>
<g>
	<g>
		<polygon class="st1" points="122.84,706.16 93.57,706.16 43.87,646.5 31.96,658.61 31.96,706.16 9.06,706.16 9.06,569.37 
			31.96,569.37 31.96,627.5 87.92,569.37 119.14,569.37 59.07,630.89 		"/>
		<path class="st1" d="M217.11,617.74c-3.7-5.85-8.73-10.27-15.1-13.04c-6.47-2.77-14.07-4.21-22.69-4.21
			c-9.35,0-17.46,1.13-24.34,3.39c-6.78,2.16-12.12,5.75-15.81,10.47c-3.7,4.83-5.55,11.09-5.55,18.79h24.85
			c0-3.49,0.92-6.37,2.57-8.73c1.74-2.46,4.21-4.21,7.39-5.44c3.18-1.13,6.78-1.74,10.89-1.74c7.19,0,12.43,1.74,15.71,5.44
			c3.18,3.59,4.83,9.24,4.83,17.05v11.5c-4.31-1.23-8.73-2.26-13.04-3.08c-5.03-0.93-10.37-1.34-16.02-1.34
			c-8.22,0-15.4,1.03-21.67,3.18c-6.16,2.16-10.99,5.44-14.38,9.86c-3.49,4.42-5.24,9.96-5.24,16.64c0,5.65,1.44,10.99,4.42,15.92
			c2.88,4.93,7.19,8.94,13.04,12.02c5.75,3.08,13.04,4.52,21.67,4.52c7.91,0,14.58-1.85,20.02-5.55c5.24-3.59,9.34-8.32,12.12-14.17
			l1.95,16.94h19.82v-65.72C222.55,631.19,220.7,623.6,217.11,617.74z M199.86,668.58c0,3.49-1.03,7.09-3.18,10.58
			c-2.05,3.59-5.03,6.57-8.83,8.83c-3.8,2.36-8.42,3.6-13.76,3.6c-7.09,0-12.22-1.54-15.51-4.52c-3.29-2.98-4.93-6.47-4.93-10.57
			c0-5.75,2.05-9.76,6.16-12.12c4.11-2.36,9.24-3.59,15.51-3.59c4.11,0,8.52,0.41,13.35,1.23c4,0.62,7.7,1.44,11.19,2.67V668.58z"/>
		<path class="st1" d="M334.38,603.37l-39.23,122c-3.8,11.6-8.52,20.13-14.27,25.67c-5.85,5.44-12.94,8.11-21.36,8.11
			c-4.72,0-9.34-0.51-13.86-1.74c-4.42-1.13-8.94-2.88-13.56-5.24v-20.13c3.8,2.57,7.5,4.41,11.09,5.65
			c3.7,1.13,7.29,1.74,10.99,1.74c3.59,0,6.78-1.03,9.34-3.08c2.67-2.06,4.93-4.83,6.78-8.42c1.85-3.49,3.49-7.39,4.72-11.71
			l3.08-10.06l-41.49-102.79h25.67l26.7,76.3l22.28-76.3H334.38z"/>
		<path class="st1" d="M513.78,645.88v60.28h-22.8v-60.28c0-8.22-2.05-14.48-5.95-18.69c-3.9-4.31-9.14-6.37-15.71-6.37
			c-8.01,0-14.28,3.18-18.79,9.55c-4.42,6.37-6.68,15.81-6.68,28.24v47.54h-22.59v-60.28c0-8.22-1.95-14.48-5.95-18.69
			c-3.9-4.31-9.24-6.37-15.81-6.37c-5.34,0-9.96,1.44-14.07,4.42c-4,2.88-7.19,7.29-9.34,13.04c-2.26,5.75-3.39,12.74-3.39,21.15
			v46.73h-22.69V603.37h19.72l2.57,18.38c3.28-6.88,7.8-12.22,13.45-15.81s12.22-5.44,19.72-5.44c8.32,0,15.4,1.85,21.05,5.65
			c5.75,3.8,10.06,9.04,12.94,15.81c0.21,0.51,0.51,1.13,0.62,1.74c1.54-3.7,3.39-6.88,5.55-9.65c3.59-4.62,8.01-8.01,13.04-10.27
			c5.03-2.16,10.58-3.29,16.63-3.29c8.42,0,15.4,1.85,21.15,5.65c5.65,3.8,10.06,9.04,12.94,15.81
			C512.35,628.83,513.78,636.74,513.78,645.88z"/>
		<path class="st1" d="M556.67,582.95c-4.47,0-7.96-1.21-10.48-3.62c-2.52-2.41-3.78-5.71-3.78-9.89c0-4.04,1.26-7.29,3.78-9.74
			c2.52-2.44,6.01-3.66,10.48-3.66c4.39,0,7.87,1.22,10.42,3.66c2.55,2.45,3.83,5.69,3.83,9.74c0,4.18-1.27,7.48-3.83,9.89
			S561.06,582.95,556.67,582.95z M545.39,706.11V603.05h22.65v103.06H545.39z"/>
		<path class="st1" d="M660.94,703.49c-3.9,1.54-7.7,2.88-11.4,3.9c-3.7,1.03-7.6,1.54-11.61,1.54c-5.96,0-11.4-1.03-16.23-3.29
			c-4.83-2.26-8.73-5.65-11.6-10.27c-2.98-4.52-4.41-10.27-4.41-17.25v-59.66h-15v-15.1h15v-27.62h22.69v27.62h29.16v15.1h-29.16
			v58.94c0,9.04,4.21,13.56,12.84,13.56c2.57,0,5.13-0.21,7.7-0.82c2.46-0.52,5.44-1.44,8.62-2.67L660.94,703.49z"/>
		<path class="st1" d="M739.09,646.29c0,1.13,0,2.16-0.1,3.28l4.83-3.28H739.09z"/>
		<path class="st1" d="M730.36,686.85c-3.49,2.57-8.01,3.8-13.45,3.8c-5.55,0-10.27-1.33-13.96-4.11c-3.7-2.77-6.47-6.57-8.32-11.3
			c-1.85-4.72-2.77-10.17-2.77-16.23h67.88c0.92-7.5,0.82-14.68-0.51-21.67c-1.34-6.98-3.7-13.25-7.29-18.79
			c-3.49-5.55-8.21-9.96-14.07-13.14c-5.85-3.29-12.84-4.93-20.95-4.93c-8.83,0-16.84,2.16-24.03,6.47
			c-7.19,4.31-12.94,10.58-17.15,18.69c-4.31,8.11-6.47,17.77-6.47,29.06c0,10.78,2.16,20.23,6.47,28.45
			c4.31,8.11,10.06,14.48,17.25,19c7.19,4.52,15.2,6.78,23.93,6.78c7.8,0,14.79-1.34,20.85-4.11c6.16-2.88,11.09-6.78,14.99-11.81
			c3.9-5.03,6.47-10.89,7.5-17.56h-23.11C736.21,680.49,733.95,684.29,730.36,686.85z M694.73,633.97
			c1.95-4.62,4.83-8.42,8.62-11.19c3.8-2.77,8.42-4.21,13.86-4.21c4.62,0,8.32,0.93,11.19,2.77c2.98,1.85,5.13,4.31,6.78,7.39
			c1.64,2.98,2.67,6.37,3.29,9.96c0.41,2.57,0.61,5.03,0.61,7.6h4.73l-4.83,3.28c0.1-1.13,0.1-2.16,0.1-3.28h-47.03
			C692.26,641.87,693.19,637.77,694.73,633.97z"/>
	</g>
	<g>
		<path class="st1" d="M122.62,872.24c-7.09,0-13.18-1.84-18.27-5.51c-5.09-3.68-8.99-8.7-11.71-15.07
			c-2.72-6.37-4.08-13.65-4.08-21.83c0-8.88,1.51-16.35,4.53-22.42s7.11-10.67,12.27-13.8s10.91-4.7,17.26-4.7
			c8.22,0,14.93,2.09,20.13,6.27c5.2,4.17,8.91,9.59,11.13,16.25l-8.22,1.82c-1.83-5.44-4.8-9.73-8.91-12.89
			c-4.11-3.15-8.82-4.73-14.13-4.73c-4.57,0-8.82,1.29-12.76,3.88c-3.94,2.59-7.11,6.43-9.53,11.52
			c-2.41,5.09-3.62,11.35-3.62,18.79c0,6.65,0.92,12.67,2.77,18.04c1.85,5.37,4.69,9.64,8.52,12.79c3.83,3.15,8.7,4.73,14.62,4.73
			c6.96,0,12.54-1.87,16.74-5.61c4.2-3.74,6.3-8.72,6.3-14.94h8.42c0,5.66-1.35,10.53-4.05,14.62c-2.7,4.09-6.42,7.24-11.16,9.46
			C134.12,871.13,128.71,872.24,122.62,872.24z"/>
		<path class="st1" d="M190.87,872.24c-5.52,0-10.4-1.24-14.62-3.72c-4.22-2.48-7.54-6.13-9.95-10.96s-3.62-10.74-3.62-17.75
			c0-7,1.21-12.91,3.62-17.71c2.41-4.81,5.73-8.45,9.95-10.93c4.22-2.48,9.09-3.72,14.62-3.72c5.52,0,10.4,1.24,14.62,3.72
			c4.22,2.48,7.53,6.12,9.92,10.93c2.39,4.81,3.59,10.71,3.59,17.71c0,7.01-1.2,12.92-3.59,17.75s-5.7,8.48-9.92,10.96
			C201.27,871,196.39,872.24,190.87,872.24z M190.74,865.65c4.57,0,8.37-1.08,11.42-3.23c3.04-2.15,5.32-5.17,6.82-9.04
			c1.5-3.87,2.25-8.39,2.25-13.57c0-7.79-1.67-14.05-4.99-18.79c-3.33-4.74-8.41-7.11-15.24-7.11c-4.57,0-8.36,1.08-11.39,3.23
			s-5.29,5.18-6.79,9.07c-1.5,3.89-2.25,8.43-2.25,13.61c0,7.75,1.67,13.99,4.99,18.73C178.9,863.28,183.95,865.65,190.74,865.65z"
			/>
		<path class="st1" d="M287.12,834.32v36.46h-7.4v-36.46c0-6.57-1.54-11.6-4.72-15.1c-3.18-3.49-7.5-5.24-13.04-5.24
			c-4,0-7.5,1.13-10.47,3.39c-2.87,2.26-5.13,5.34-6.67,9.34c-1.54,4.01-2.36,8.63-2.36,13.97v30.09h-7.5v-61.92h6.37l1.03,13.35
			c1.74-4.52,4.42-8.22,7.8-10.68c3.6-2.67,8.11-4.11,13.56-4.11c4.83,0,8.93,1.13,12.43,3.18c3.49,2.16,6.16,5.23,8.11,9.24
			C286.2,823.95,287.12,828.67,287.12,834.32z"/>
		<path class="st1" d="M329.66,872.24c-6,0-10.95-0.87-14.84-2.61c-3.89-1.74-6.82-4.09-8.78-7.05c-1.96-2.96-3.02-6.27-3.2-9.92
			h7.57c0.26,4.4,2.03,7.71,5.32,9.95c3.28,2.24,7.78,3.36,13.47,3.36c2.96,0,5.7-0.49,8.22-1.47c2.52-0.98,4.56-2.33,6.1-4.04
			s2.32-3.67,2.32-5.84c0-2.78-1.02-4.96-3.07-6.53c-2.05-1.56-5.29-2.91-9.72-4.04l-11.29-3.39c-5.44-1.57-9.59-3.8-12.46-6.69
			c-2.87-2.89-4.31-6.36-4.31-10.41c0-4.87,2.11-8.78,6.33-11.71c4.22-2.94,9.72-4.41,16.51-4.41c7.39,0,13.16,1.46,17.29,4.37
			c4.13,2.91,6.31,6.55,6.52,10.9h-7.83c-0.48-3.09-2.07-5.38-4.76-6.89c-2.7-1.5-6.44-2.25-11.22-2.25
			c-4.74,0-8.42,1.09-11.03,3.26c-2.61,2.17-3.91,4.55-3.91,7.11c0,4.96,4.26,8.59,12.79,10.9l11.09,3.46
			c5.57,1.56,9.82,3.65,12.76,6.26c2.94,2.61,4.4,5.96,4.4,10.05c0,3-0.97,5.85-2.9,8.55s-4.71,4.88-8.32,6.56
			C339.11,871.4,334.76,872.24,329.66,872.24z"/>
		<path class="st1" d="M421.85,808.85v61.92h-7.6v-13.14c-1.95,4.42-4.72,7.91-8.22,10.37c-3.7,2.67-8.11,4.01-13.25,4.01
			c-4.83,0-8.94-0.93-12.43-2.67c-3.39-1.85-6.06-4.52-7.91-8.01c-1.95-3.6-2.88-8.01-2.88-13.25v-39.23h7.6v38.82
			c0,5.75,1.44,10.17,4.21,13.14c2.77,3.08,6.88,4.62,12.12,4.62c4.42,0,8.11-1.23,11.19-3.6s5.44-5.44,7.09-9.45
			c1.64-3.9,2.46-8.32,2.46-13.14v-30.4H421.85z"/>
		<path class="st1" d="M444.77,870.81v-88.75h7.57v88.75H444.77z"/>
		<path class="st1" d="M506.26,869.03c-2.16,0.92-4.31,1.74-6.47,2.36c-2.06,0.51-4.31,0.82-6.57,0.82c-3.18,0-6.06-0.62-8.52-1.85
			c-2.57-1.23-4.52-3.18-5.85-5.65c-1.44-2.47-2.16-5.55-2.16-9.14V814.4h-10.68v-5.55h10.68v-17.56h7.39v17.56h20.95v5.55h-20.95
			v40.97c0,7.09,3.29,10.58,9.76,10.58c1.95,0,3.7-0.21,5.44-0.62c1.74-0.41,3.7-1.03,5.96-1.85L506.26,869.03z"/>
		<path class="st1" d="M522.55,792.57c-1.61,0-2.92-0.5-3.92-1.5c-1-1-1.5-2.26-1.5-3.78c0-1.48,0.5-2.67,1.5-3.56
			c1-0.89,2.31-1.34,3.92-1.34c1.69,0,3.02,0.45,3.98,1.34c0.96,0.89,1.44,2.08,1.44,3.56c0,1.52-0.48,2.78-1.44,3.78
			C525.57,792.07,524.24,792.57,522.55,792.57z M518.76,870.81v-61.99h7.57v61.99H518.76z"/>
		<path class="st1" d="M603,834.32v36.46h-7.39v-36.46c0-6.57-1.54-11.6-4.73-15.1c-3.18-3.49-7.5-5.24-13.04-5.24
			c-4,0-7.5,1.13-10.47,3.39c-2.88,2.26-5.13,5.34-6.68,9.34c-1.54,4.01-2.36,8.63-2.36,13.97v30.09h-7.5v-61.92h6.37l1.03,13.35
			c1.74-4.52,4.42-8.22,7.8-10.68c3.59-2.67,8.11-4.11,13.56-4.11c4.83,0,8.93,1.13,12.43,3.18c3.49,2.16,6.16,5.23,8.11,9.24
			C602.07,823.95,603,828.67,603,834.32z"/>
		<path class="st1" d="M676.11,869.23c-3.08-2.47-7.39-3.7-12.84-3.7H637.5c-4.72,0-8.01-0.72-9.65-2.26
			c-1.75-1.44-2.67-3.29-2.67-5.44c0-1.85,0.51-3.39,1.44-4.72c1.03-1.23,2.26-2.16,3.6-2.77c1.03-0.41,2.05-0.72,2.98-0.82
			c0.31,0.31,0.72,0.51,1.13,0.72c3.7,1.95,7.91,2.98,12.63,2.98c4.52,0,8.62-1.03,12.32-2.98c3.59-1.85,6.47-4.62,8.62-8.01
			c2.05-3.49,3.18-7.5,3.18-11.91c0-4.52-1.13-8.52-3.18-12.01c-0.41-0.62-0.82-1.23-1.33-1.85c0.1-3.49,1.13-6.06,3.08-7.8
			c2.16-1.85,5.13-2.77,9.14-2.77l0.82-7.7c-3.7,0-6.78,0.82-9.24,2.26c-2.57,1.54-4.42,3.7-5.75,6.37
			c-0.82,1.85-1.33,3.9-1.64,6.06c-1.13-1.03-2.36-1.85-3.7-2.57c-3.7-1.85-7.8-2.87-12.32-2.87c-4.73,0-8.94,1.03-12.63,2.87
			c-3.59,1.95-6.57,4.62-8.62,8.01c-2.16,3.49-3.29,7.5-3.29,12.01c0,4.42,1.13,8.42,3.29,11.91c1.03,1.64,2.26,3.18,3.59,4.52
			c-1.13,0.2-2.16,0.51-3.18,0.92c-2.26,0.93-4.21,2.26-5.65,4.01c-1.44,1.74-2.16,3.9-2.16,6.57c0,2.26,0.72,4.31,2.16,6.37
			c1.33,1.85,3.28,3.39,5.85,4.52c-2.26,0.61-4.31,1.54-6.06,2.77c-3.7,2.67-5.55,6.47-5.55,11.4c0,3.6,1.23,6.88,3.7,9.76
			c2.57,2.88,6.06,5.24,10.47,6.98c4.52,1.64,9.76,2.57,15.71,2.57c7.6,0,14.07-1.13,19.51-3.49c5.34-2.26,9.55-5.24,12.43-8.83
			c2.88-3.59,4.31-7.39,4.31-11.19C680.84,874.99,679.2,871.7,676.11,869.23z M634.63,817.99c2.98-3.18,7.09-4.72,12.32-4.72
			c5.13,0,9.14,1.54,12.12,4.72c2.98,3.18,4.52,7.29,4.52,12.32c0,4.93-1.54,9.04-4.52,12.32c-2.98,3.29-6.98,4.93-12.22,4.93
			c-5.13,0-9.24-1.64-12.22-4.93s-4.52-7.39-4.52-12.32C630.11,825.28,631.65,821.17,634.63,817.99z M669.54,887.72
			c-2.46,2.57-5.75,4.72-10.07,6.27c-4.31,1.64-9.24,2.36-14.89,2.36c-7.5,0-13.14-1.23-16.94-3.9c-3.8-2.57-5.65-5.65-5.65-9.34
			c0-3.59,1.34-6.47,4.01-8.63c2.77-2.16,6.57-3.18,11.5-3.18h25.78c3.29,0,5.75,0.82,7.39,2.36c1.64,1.64,2.46,3.49,2.46,5.75
			C673.14,882.38,671.9,885.15,669.54,887.72z"/>
	</g>
	<path class="st2" d="M206.01,380.56c-11.61-14.6-21.34-30.53-29.06-47.56c-6.81-15.03-5.56-31.65,3.43-45.59
		c8.97-13.91,24.17-22.21,40.68-22.21c17.39,0,31.74,9.59,38.39,25.65c6.65,16.07,3.28,32.99-9.01,45.29L206.01,380.56z"/>
	<path class="st2" d="M158.24,212.76c2.14-18.84,6.61-37.26,13.37-54.99c6.99-18.34,24.48-30.19,44.56-30.19
		c12.91,0,25.07,5.06,34.25,14.22c12.33,12.33,15.7,29.26,9.05,45.31c-6.65,16.06-21,25.65-38.38,25.65H158.24z"/>
	<path class="st2" d="M316.46,117.03c-7.58,0-18.75-2.14-28.92-12.3l-44.43-44.44c14.6-11.6,30.53-21.33,47.56-29.06
		c6.32-2.87,12.93-4.32,19.64-4.32c23.16,0,48.16,18.52,48.16,48.43C358.48,101.43,337.12,117.03,316.46,117.03z"/>
	<path class="st2" d="M358.48,465.44c-18.85-2.14-37.26-6.61-54.99-13.37c-15.08-5.75-25.68-18.21-29.1-34.19
		c-3.47-16.24,1.43-32.92,13.12-44.61l0.38-0.37c10.07-9.87,21.07-11.95,28.57-11.95c20.65,0,42.01,15.59,42.01,41.68V465.44z"/>
	<path class="st2" d="M459.09,451.05c-23.17,0-48.17-18.52-48.17-48.43c0-26.09,21.36-41.68,42.01-41.68
		c7.58,0,18.76,2.14,28.92,12.3l44.43,44.43c-14.6,11.6-30.53,21.34-47.56,29.07C472.4,449.6,465.79,451.05,459.09,451.05z"/>
	<path class="st2" d="M452.94,117.03c-20.66,0-42.02-15.6-42.02-41.69V12.53c18.83,2.14,37.25,6.61,54.99,13.37
		c15.07,5.74,25.67,18.21,29.09,34.19c3.47,16.24-1.43,32.92-13.12,44.61C471.69,114.89,460.52,117.03,452.94,117.03z"/>
	<path class="st2" d="M553.22,350.38c-12.91,0-25.07-5.05-34.24-14.21c-12.32-12.32-15.69-29.25-9.04-45.31
		c6.65-16.06,21-25.65,38.39-25.65h62.81c-2.14,18.84-6.61,37.26-13.36,54.99C590.8,338.53,573.3,350.38,553.22,350.38z"/>
	<path class="st2" d="M548.31,212.76c-17.38,0-31.73-9.58-38.38-25.64c-6.65-16.07-3.28-32.99,9-45.28l44.45-44.44
		c11.6,14.6,21.34,30.52,29.06,47.55c6.81,15.03,5.56,31.65-3.42,45.6c-8.97,13.91-24.18,22.21-40.68,22.21H548.31z"/>
</g>
</svg>
